<svg xmlns="http://www.w3.org/2000/svg" viewBox="0 0 64 64" role="img" aria-labelledby="title desc">
  <title id="title">EasyPIVA</title>
  <desc id="desc">Monogramma EP su sfondo neutro con accento blu.</desc>
  <defs>
    <linearGradient id="bg" x1="8" y1="6" x2="56" y2="58" gradientUnits="userSpaceOnUse">
      <stop offset="0" stop-color="#fafafa" />
      <stop offset="1" stop-color="#eeeeee" />
    </linearGradient>
    <linearGradient id="ink" x1="18" y1="16" x2="48" y2="44" gradientUnits="userSpaceOnUse">
      <stop offset="0" stop-color="#111827" />
      <stop offset="1" stop-color="#3f3f46" />
    </linearGradient>
  </defs>
  <rect x="4" y="4" width="56" height="56" rx="16" fill="url(#bg)" stroke="#d4d4d8" />
  <path
    d="M18 16h14v4H22v7h9v4h-9v9h10v4H18V16Zm18 0h8c7 0 12 4.3 12 10.5S51 37 44 37h-4v11h-4V16Zm4 4v13h4c4.9 0 8-2.4 8-6.5S48.9 20 44 20h-4Z"
    fill="url(#ink)"
  />
  <circle cx="49" cy="49" r="4.5" fill="#2563eb" />
</svg>
